Coordinates
version=1
nRows=21
nColumns=38
inDegrees=no

Units are S.I. units (second, meters, Newtons, ...)
If the header above contains a line with 'inDegrees', this indicates whether rotational values are in degrees (yes) or radians (no).

endheader
time	pelvis_tilt	pelvis_list	pelvis_rotation	pelvis_tx	pelvis_ty	pelvis_tz	hip_flexion_r	hip_adduction_r	hip_rotation_r	knee_angle_r	ankle_angle_r	subtalar_angle_r	mtp_angle_r	hip_flexion_l	hip_adduction_l	hip_rotation_l	knee_angle_l	ankle_angle_l	subtalar_angle_l	mtp_angle_l	lumbar_extension	lumbar_bending	lumbar_rotation	arm_flex_r	arm_add_r	arm_rot_r	elbow_flex_r	pro_sup_r	wrist_flex_r	wrist_dev_r	arm_flex_l	arm_add_l	arm_rot_l	elbow_flex_l	pro_sup_l	wrist_flex_l	wrist_dev_l
0.68	-0.140457	-0.00340227	0.0274472	0.752569	0.974413	-0.333916	0.884845	-0.0402407	-0.0550247	-1.93138	0.163656	0.010744	0.00797773	0.0735999	0.0213833	-0.134371	-0.575128	0.293205	0.0208734	0.012112	-0.0954435	-0.00356513	-0.231736	-0.481866	-0.389326	0.0992847	1.45467	1.452	0.0451735	-0.0432545	-0.0467612	-0.654313	0.359547	2.01185	1.43141	-0.00973252	0.0262223
0.69	-0.13693	-0.018265	0.0271227	0.754214	0.982792	-0.33371	0.899357	-0.0247324	-0.0630108	-1.84281	0.171629	0.010744	0.00797773	0.00464032	-0.00133218	-0.147231	-0.51732	0.20175	0.0208734	0.012112	-0.0967524	0.0168328	-0.245761	-0.51129	-0.399781	0.08658	1.4776	1.44652	0.0451735	-0.0432545	-0.0263508	-0.644149	0.352948	2.05076	1.43896	-0.00973252	0.0262223
0.7	-0.137134	-0.0324726	0.0263826	0.756041	0.990794	-0.333417	0.909598	-0.00881612	-0.0699201	-1.74321	0.176369	0.010744	0.00797773	-0.0527537	-0.0234679	-0.16327	-0.470267	0.107315	0.0208734	0.012112	-0.0933659	0.0364358	-0.257577	-0.541873	-0.408672	0.0716574	1.50154	1.43887	0.0451735	-0.0432545	-0.00928501	-0.634919	0.348848	2.09109	1.44351	-0.00973252	0.0262223
0.71	-0.14079	-0.0447058	0.0248639	0.757869	0.998127	-0.333042	0.915524	0.00676561	-0.0745514	-1.63334	0.177491	0.010744	0.00797773	-0.0975774	-0.0432461	-0.181322	-0.437519	0.0161453	0.0208734	0.012112	-0.0860273	0.0537669	-0.266874	-0.572944	-0.415633	0.0549744	1.52552	1.42935	0.0451735	-0.0432545	0.00520345	-0.626984	0.347962	2.13149	1.44518	-0.00973252	0.0262223
0.72	-0.14719	-0.0538831	0.0222538	0.759561	1.00461	-0.332614	0.916603	0.0211923	-0.0764361	-1.51384	0.174699	0.010744	0.00797773	-0.130049	-0.0591257	-0.199701	-0.421512	-0.0660553	0.0208734	0.012112	-0.0759086	0.0676589	-0.27345	-0.603729	-0.420455	0.0371383	1.54872	1.41836	0.0451735	-0.0432545	0.0175434	-0.620487	0.350421	2.17061	1.44456	-0.00973252	0.0262223
0.73	-0.155317	-0.0592881	0.0183331	0.761032	1.01019	-0.33216	0.91202	0.0337084	-0.0758869	-1.38551	0.167788	0.010744	0.00797773	-0.15141	-0.0699975	-0.216554	-0.423449	-0.134998	0.0208734	0.012112	-0.0644187	0.0773541	-0.277225	-0.633379	-0.423082	0.0188452	1.5705	1.40656	0.0451735	-0.0432545	0.0277845	-0.615383	0.355816	2.20707	1.44262	-0.00973252	0.0262223
0.74	-0.163988	-0.0606092	0.0130016	0.762268	1.01486	-0.331681	0.900982	0.0437281	-0.07388	-1.24965	0.156652	0.010744	0.00797773	-0.163579	-0.0753257	-0.23032	-0.44334	-0.18841	0.0208734	0.012112	-0.0529907	0.0825189	-0.278253	-0.661013	-0.4236	0.00080836	1.59031	1.39482	0.0451735	-0.0432545	0.0356286	-0.611489	0.36332	2.23948	1.44056	-0.00973252	0.0262223
0.75	-0.172025	-0.0579052	0.00628465	0.76331	1.01864	-0.331177	0.883048	0.050895	-0.0718283	-1.10841	0.141319	0.010744	0.00797773	-0.168746	-0.0752519	-0.240179	-0.480196	-0.226158	0.0208734	0.012112	-0.0428738	0.0832191	-0.276731	-0.685776	-0.422206	-0.016312	1.60765	1.38423	0.0451735	-0.0432545	0.0405207	-0.608546	0.371852	2.26652	1.43959	-0.00973252	0.0262223
0.76	-0.178389	-0.0515961	-0.00167261	0.764251	1.0215	-0.330621	0.858414	0.0551018	-0.0713017	-0.965002	0.122001	0.010744	0.00797773	-0.168979	-0.0706287	-0.246309	-0.532325	-0.249848	0.0208734	0.012112	-0.0349568	0.0798738	-0.272978	-0.706901	-0.419187	-0.0319595	1.62206	1.37593	0.0451735	-0.0432545	0.0417865	-0.606254	0.380273	2.28702	1.44067	-0.00973252	0.0262223
0.77	-0.182379	-0.0424176	-0.0105888	0.765174	1.02343	-0.329987	0.828064	0.0565172	-0.0737404	-0.823764	0.0991281	0.010744	0.00797773	-0.165957	-0.0629692	-0.249831	-0.597673	-0.262074	0.0208734	0.012112	-0.0297036	0.0732285	-0.267379	-0.72375	-0.414906	-0.0457029	1.63317	1.37087	0.0451735	-0.0432545	0.0387945	-0.6043	0.387589	2.30001	1.44414	-0.00973252	0.0262223
0.78	-0.183773	-0.0313215	-0.0201281	0.766117	1.02439	-0.329264	0.793716	0.0555778	-0.0801501	-0.689926	0.0734066	0.010744	0.00797773	-0.160836	-0.0543176	-0.252456	-0.674103	-0.265597	0.0208734	0.012112	-0.0271864	0.064325	-0.260338	-0.735854	-0.409759	-0.0572238	1.64073	1.36941	0.0451735	-0.0432545	0.0311253	-0.60237	0.393129	2.30487	1.44964	-0.00973252	0.0262223
0.79	-0.182699	-0.0194225	-0.0299318	0.767076	1.02434	-0.328447	0.75764	0.0529574	-0.0907835	-0.569163	0.0458978	0.010744	0.00797773	-0.1542	-0.0469377	-0.255932	-0.75959	-0.262738	0.0208734	0.012112	-0.0271335	0.0543964	-0.25222	-0.74291	-0.40415	-0.0662881	1.64457	1.37114	0.0451735	-0.0432545	0.0186868	-0.60017	0.39662	2.30132	1.45614	-0.00973252	0.0262223
0.8	-0.179551	-0.00788165	-0.0396381	0.768028	1.02328	-0.327543	0.722325	0.0495138	-0.104886	-0.466977	0.0181359	0.010744	0.00797773	-0.146115	-0.0429451	-0.261491	-0.852336	-0.255104	0.0208734	0.012112	-0.0290748	0.0447409	-0.24331	-0.744759	-0.398443	-0.0727193	1.64471	1.375	0.0451735	-0.0432545	0.00175818	-0.597455	0.398156	2.28943	1.46233	-0.00973252	0.0262223
0.81	-0.174879	0.00221485	-0.0488916	0.768915	1.02121	-0.326571	0.690106	0.0461929	-0.120632	-0.388071	-0.00774755	0.010744	0.00797773	-0.136227	-0.0439494	-0.269455	-0.95082	-0.243632	0.0208734	0.012112	-0.032487	0.0365815	-0.233819	-0.741363	-0.39294	-0.0763875	1.6413	1.3795	0.0451735	-0.0432545	-0.0190452	-0.594053	0.398079	2.26958	1.46695	-0.00973252	0.0262223
0.82	-0.169298	0.00996828	-0.0573613	0.769653	1.01816	-0.325562	0.662868	0.0439015	-0.135361	-0.335849	-0.0289605	0.010744	0.00797773	-0.123881	-0.0507702	-0.279105	-1.05378	-0.228808	0.0208734	0.012112	-0.0369168	0.0309302	-0.223894	-0.732776	-0.387867	-0.0772145	1.63468	1.38309	0.0451735	-0.0432545	-0.042871	-0.589887	0.39683	2.24232	1.46907	-0.00973252	0.0262223
0.83	-0.163405	0.0148035	-0.0647654	0.770139	1.01415	-0.32455	0.641853	0.0434084	-0.146187	-0.312081	-0.0421538	0.010744	0.00797773	-0.108211	-0.0633288	-0.288847	-1.16016	-0.210933	0.0208734	0.012112	-0.0420367	0.0285281	-0.21362	-0.719127	-0.38337	-0.0751918	1.62535	1.38447	0.0451735	-0.0432545	-0.0687524	-0.584979	0.394828	2.20833	1.46822	-0.00973252	0.0262223
0.84	-0.157681	0.0164703	-0.0708958	0.770285	1.00919	-0.323584	0.627564	0.045274	-0.150791	-0.316651	-0.0437947	0.010744	0.00797773	-0.0882013	-0.0806834	-0.296568	-1.26901	-0.190359	0.0208734	0.012112	-0.0476351	0.0297961	-0.203003	-0.700588	-0.379512	-0.0703945	1.61395	1.38285	0.0451735	-0.0432545	-0.0957418	-0.579452	0.39239	2.16838	1.46432	-0.00973252	0.0262223
0.85	-0.152523	0.0150055	-0.0756484	0.770021	1.0033	-0.32273	0.619686	0.0498087	-0.148145	-0.347375	-0.0308196	0.010744	0.00797773	-0.0627491	-0.101222	-0.300068	-1.3794	-0.167632	0.0208734	0.012112	-0.0535933	0.0348236	-0.191994	-0.677344	-0.376264	-0.0629826	1.60121	1.37816	0.0451735	-0.0432545	-0.123033	-0.573515	0.389685	2.12332	1.45754	-0.00973252	0.0262223
0.86	-0.148274	0.0107192	-0.0790175	0.769287	0.996517	-0.32207	0.617132	0.0570419	-0.138819	-0.400085	-0.00140072	0.010744	0.00797773	-0.0307509	-0.12294	-0.297489	-1.49031	-0.143502	0.0208734	0.012112	-0.0598386	0.0433837	-0.180508	-0.649564	-0.373495	-0.0531896	1.58788	1.37119	0.0451735	-0.0432545	-0.150061	-0.567456	0.386721	2.07411	1.44804	-0.00973252	0.0262223
0.87	-0.145185	0.0041813	-0.0810765	0.768021	0.988986	-0.321683	0.618247	0.0666495	-0.124722	-0.469104	0.0444601	0.010744	0.00797773	0.00877389	-0.143685	-0.287643	-1.60047	-0.118825	0.0208734	0.012112	-0.0662837	0.0549119	-0.168465	-0.617398	-0.370974	-0.0413044	1.57466	1.36341	0.0451735	-0.0432545	-0.176581	-0.561605	0.383352	2.02191	1.43587	-0.00973252	0.0262223
0.88	-0.143418	-0.00385511	-0.0819799	0.766165	0.981024	-0.321624	0.620998	0.0779254	-0.108361	-0.547813	0.104656	0.010744	0.00797773	0.0565252	-0.161379	-0.270241	-1.70827	-0.0943923	0.0208734	0.012112	-0.0727935	0.068488	-0.155816	-0.581004	-0.368392	-0.027654	1.56217	1.35666	0.0451735	-0.0432545	-0.202697	-0.55629	0.379303	1.96815	1.42101	-0.00973252	0.0262223
